<svg width="100" height="98" viewBox="0 0 100 98" fill="none" xmlns="http://www.w3.org/2000/svg">
<path d="M17.7083 0H82.2917C92.0833 0 100 7.91667 100 17.7083V79.7917C100 89.5833 92.0833 97.5 82.2917 97.5H17.7083C7.91667 97.5 0 89.5833 0 79.7917V17.7083C0 7.91667 7.91667 0 17.7083 0Z" fill="#330000"/>
<path d="M48.4584 58.5002H32.9584L29.7917 68.2918C29.7084 68.6668 29.375 68.9168 29 68.8752H21.1667C20.7084 68.8752 20.5834 68.6252 20.7084 68.1252L34.125 29.5002C34.25 29.0835 34.375 28.6252 34.5417 28.1252C34.7084 27.2502 34.7917 26.3335 34.7917 25.4168C34.75 25.2085 34.9167 25.0002 35.125 24.9585C35.1667 24.9585 35.2084 24.9585 35.25 24.9585H45.9167C46.25 24.9585 46.4167 25.0835 46.4584 25.2918L61.6667 68.2085C61.7917 68.6668 61.6667 68.8752 61.25 68.8752H52.5417C52.25 68.9168 51.9584 68.7085 51.875 68.4168L48.4584 58.5002ZM35.375 50.0418H45.9584C45.7084 49.1668 45.375 48.1252 45 47.0418C44.625 45.9168 44.25 44.7085 43.875 43.4585C43.4584 42.1668 43.0834 40.9168 42.6667 39.6252C42.25 38.3335 41.875 37.1252 41.5417 35.9168C41.2084 34.7502 40.9167 33.6668 40.625 32.6668H40.5417C40.1667 34.4585 39.7084 36.2502 39.125 38.0418C38.5 40.0418 37.875 42.1252 37.2084 44.2085C36.625 46.3335 36 48.2918 35.375 50.0418Z" fill="#FF9A00"/>
<path d="M70.7501 32.0833C69.3751 32.125 68.0418 31.5833 67.0418 30.625C66.0834 29.5833 65.5834 28.2083 65.6251 26.7917C65.5834 25.375 66.1251 24.0417 67.1251 23.0833C68.1251 22.125 69.4584 21.625 70.8334 21.625C72.4584 21.625 73.7084 22.125 74.6251 23.0833C75.5418 24.0833 76.0418 25.4167 76.0001 26.7917C76.0418 28.2083 75.5418 29.5833 74.5418 30.625C73.5834 31.625 72.1668 32.1667 70.7501 32.0833ZM66.0834 68.25V36.1667C66.0834 35.75 66.2501 35.5833 66.6251 35.5833H74.8751C75.2501 35.5833 75.4168 35.7917 75.4168 36.1667V68.25C75.4168 68.7083 75.2501 68.9167 74.8751 68.9167H66.7084C66.2918 68.9167 66.0834 68.6667 66.0834 68.25Z" fill="#FF9A00"/>
</svg>
